# xmcd
# 
# Track frame offsets:
#     150
#     15137
#     33447
#     58545
# 
# Disc length: 1200
# 
# Revision: 0
# Processed by: cddbd v1.5.2PL0 Copyright (c) Steve Scherf et al.
# Submitted via: fre:ac v1.0.17
# 
DISCID=2104ae04
DTITLE=Fountains Of Wayne  - Stacy's Mom
DYEAR=2003
DGENRE=
TTITLE0=Stacy's Mom
TTITLE1=Elevator Up
TTITLE2=Trains and Boats and Planes
TTITLE3=Data track
EXTD=
EXTT0=
EXTT1=
EXTT2=
EXTT3=
PLAYORDER=
